<?xml version="1.0"?><svg fill="#ffffff" xmlns="http://www.w3.org/2000/svg" viewBox="0 0 24 24" width="96px" height="96px">    <path d="M 18.5 2 C 16.567 2 15 3.567 15 5.5 C 15 8.125 18.0625 9.427 18.0625 12.5 C 18.0625 12.741 18.259 12.953125 18.5 12.953125 C 18.741 12.953125 18.972656 12.775156 18.972656 12.535156 C 18.971656 9.4611563 22 8 22 5.5 C 22 3.567 20.432 2 18.5 2 z M 5 3 C 3.895 3 3 3.895 3 5 L 3 19 C 3 20.105 3.895 21 5 21 L 19 21 C 20.105 21 21 20.105 21 19 L 21 12 C 21 12 20.875 14.375 19 15 L 19 17.585938 L 13.414062 12 L 15.144531 10.269531 L 13.917969 8.6679688 L 5 17.585938 L 5 5 L 13 5 C 13.125 3.75 13.625 3 13.625 3 L 5 3 z M 18.533203 4.2988281 C 19.177203 4.2988281 19.701172 4.8198438 19.701172 5.4648438 C 19.701172 6.1098438 19.177203 6.6328125 18.533203 6.6328125 C 17.889203 6.6328125 17.367188 6.1098438 17.367188 5.4648438 C 17.367188 4.8208437 17.888203 4.2988281 18.533203 4.2988281 z M 8.5019531 6 C 7.1199531 6 6 7.119 6 8.5 C 6 9.881 7.1199531 11 8.5019531 11 C 10.600953 11 11.062422 9.0365 10.857422 8.0625 L 8.5019531 8.0605469 L 8.5019531 9.015625 L 9.8613281 9.015625 C 9.6833281 9.594625 9.2019531 10.007812 8.5019531 10.007812 C 7.6689531 10.007812 6.9921875 9.333 6.9921875 8.5 C 6.9921875 7.667 7.6689531 6.9921875 8.5019531 6.9921875 C 8.8759531 6.9921875 9.2164688 7.1294688 9.4804688 7.3554688 L 10.185547 6.6523438 C 9.7405469 6.2473437 9.1499531 6 8.5019531 6 z M 12 13.414062 L 17.585938 19 L 6.4140625 19 L 12 13.414062 z"/></svg>